<svg width="260" height="60" viewBox="0 0 260 60" xmlns="http://www.w3.org/2000/svg">
  <defs>
    <!-- Gradient for the building -->
    <linearGradient id="buildingGradient" x1="0%" y1="0%" x2="100%" y2="100%">
      <stop offset="0%" style="stop-color:#2563eb"/>
      <stop offset="100%" style="stop-color:#1d4ed8"/>
    </linearGradient>
    
    <!-- Gradient for accent -->
    <linearGradient id="accentGradient" x1="0%" y1="0%" x2="100%" y2="0%">
      <stop offset="0%" style="stop-color:#fbbf24"/>
      <stop offset="100%" style="stop-color:#f59e0b"/>
    </linearGradient>
  </defs>
  
  <!-- Hotel Building Icon -->
  <g transform="translate(8, 8)">
    <!-- Main building -->
    <rect x="0" y="15" width="35" height="30" fill="url(#buildingGradient)" rx="2"/>
    
    <!-- Hotel sign/banner -->
    <rect x="2" y="10" width="31" height="8" fill="url(#accentGradient)" rx="4"/>
    
    <!-- Windows grid -->
    <rect x="4" y="20" width="4" height="4" fill="white" opacity="0.9" rx="0.5"/>
    <rect x="10" y="20" width="4" height="4" fill="white" opacity="0.9" rx="0.5"/>
    <rect x="16" y="20" width="4" height="4" fill="white" opacity="0.9" rx="0.5"/>
    <rect x="22" y="20" width="4" height="4" fill="white" opacity="0.9" rx="0.5"/>
    <rect x="28" y="20" width="4" height="4" fill="white" opacity="0.9" rx="0.5"/>
    
    <rect x="4" y="27" width="4" height="4" fill="white" opacity="0.7" rx="0.5"/>
    <rect x="10" y="27" width="4" height="4" fill="white" opacity="0.9" rx="0.5"/>
    <rect x="16" y="27" width="4" height="4" fill="white" opacity="0.7" rx="0.5"/>
    <rect x="22" y="27" width="4" height="4" fill="white" opacity="0.9" rx="0.5"/>
    <rect x="28" y="27" width="4" height="4" fill="white" opacity="0.7" rx="0.5"/>
    
    <rect x="4" y="34" width="4" height="4" fill="white" opacity="0.9" rx="0.5"/>
    <rect x="10" y="34" width="4" height="4" fill="white" opacity="0.7" rx="0.5"/>
    <rect x="16" y="34" width="4" height="4" fill="white" opacity="0.9" rx="0.5"/>
    <rect x="22" y="34" width="4" height="4" fill="white" opacity="0.7" rx="0.5"/>
    <rect x="28" y="34" width="4" height="4" fill="white" opacity="0.9" rx="0.5"/>
    
    <!-- Main entrance -->
    <rect x="14" y="38" width="8" height="7" fill="#1e40af" rx="1"/>
    <rect x="16" y="40" width="4" height="5" fill="url(#accentGradient)" rx="0.5"/>
    
    <!-- Star rating -->
    <g transform="translate(12, 3)">
      <polygon points="5,0 6,3 9,3 7,5 8,8 5,6 2,8 3,5 1,3 4,3" fill="url(#accentGradient)"/>
      <polygon points="11,1 12,3 14,3 13,4 13.5,6 11,5 8.5,6 9,4 8,3 10,3" fill="url(#accentGradient)" opacity="0.8"/>
    </g>
  </g>
  
  <!-- StayHub Text -->
  <g transform="translate(55, 0)">
    <!-- Stay -->
    <text x="0" y="28" font-family="-apple-system, BlinkMacSystemFont, 'Segoe UI', Roboto, sans-serif" 
          font-size="22" font-weight="700" fill="#1e40af" letter-spacing="-0.5px">Stay</text>
    
    <!-- Hub -->
    <text x="50" y="28" font-family="-apple-system, BlinkMacSystemFont, 'Segoe UI', Roboto, sans-serif" 
          font-size="22" font-weight="700" fill="#374151" letter-spacing="-0.5px">Hub</text>
    
    <!-- Tagline -->
    <text x="0" y="42" font-family="-apple-system, BlinkMacSystemFont, 'Segoe UI', Roboto, sans-serif" 
          font-size="9" font-weight="500" fill="#6b7280" letter-spacing="0.8px">BOOK • STAY • EXPERIENCE</text>
  </g>
  
  <!-- Booking indicator dots -->
  <g transform="translate(200, 25)">
    <circle cx="0" cy="0" r="3" fill="#2563eb"/>
    <circle cx="10" cy="0" r="2" fill="#fbbf24"/>
    <circle cx="18" cy="0" r="1.5" fill="#2563eb" opacity="0.6"/>
  </g>
</svg>